{"glyphs":{"0":{"ha":1307,"x_min":0,"x_max":1144,"o":"m 1062 1062 l 980 1062 l 980 1144 l 163 1144 l 163 1062 l 245 1062 l 245 980 l 163 980 l 163 899 l 82 899 l 82 980 l 0 980 l 0 163 l 82 163 l 82 82 l 163 82 l 163 0 l 980 0 l 980 82 l 1062 82 l 1062 163 l 1144 163 l 1144 980 l 1062 980 l 1062 1062 m 572 327 l 572 899 l 817 899 l 817 327 l 572 327 z "},"1":{"ha":899,"x_min":0,"x_max":735,"o":"m 82 900 l 163 900 l 163 980 l 245 980 l 245 1061 l 82 1061 l 82 900 m 82 1062 l 82 1144 l 654 1144 l 654 1062 l 735 1062 l 735 82 l 654 82 l 654 0 l 245 0 l 245 82 l 163 82 l 163 817 l 82 817 l 82 899 l 0 899 l 0 1062 l 82 1062 z "},"2":{"ha":1307,"x_min":0,"x_max":1144,"o":"m 82 900 l 163 900 l 163 980 l 245 980 l 245 1061 l 82 1061 l 82 900 m 82 1062 l 82 1144 l 980 1144 l 980 1062 l 1062 1062 l 1062 980 l 1144 980 l 1144 654 l 1062 654 l 1062 572 l 980 572 l 980 490 l 572 490 l 572 408 l 1062 408 l 1062 327 l 1144 327 l 1144 82 l 1062 82 l 1062 0 l 82 0 l 82 82 l 0 82 l 0 572 l 82 572 l 82 654 l 163 654 l 163 735 l 735 735 l 735 817 l 82 817 l 82 899 l 0 899 l 0 1062 l 82 1062 z "},"3":{"ha":1307,"x_min":0,"x_max":1144,"o":"m 1062 1062 l 980 1062 l 980 1144 l 163 1144 l 163 1062 l 245 1062 l 245 980 l 163 980 l 163 899 l 82 899 l 82 817 l 817 817 l 817 735 l 163 735 l 163 654 l 82 654 l 82 572 l 163 572 l 163 490 l 817 490 l 817 408 l 82 408 l 82 327 l 0 327 l 0 163 l 82 163 l 82 82 l 163 82 l 163 0 l 980 0 l 980 82 l 1062 82 l 1062 163 l 1144 163 l 1144 980 l 1062 980 l 1062 1062 m 0 980 l 0 899 l 82 899 l 82 980 l 0 980 z "},"4":{"ha":1307,"x_min":0,"x_max":1144,"o":"m 82 1061 l 82 899 l 163 899 l 163 980 l 245 980 l 245 1061 l 82 1061 m 1062 572 l 1062 490 l 1144 490 l 1144 327 l 1062 327 l 1062 245 l 980 245 l 980 82 l 899 82 l 899 0 l 654 0 l 654 82 l 572 82 l 572 245 l 163 245 l 163 327 l 82 327 l 82 408 l 0 408 l 0 1062 l 82 1062 l 82 1144 l 408 1144 l 408 1062 l 490 1062 l 490 572 l 572 572 l 572 1062 l 654 1062 l 654 1144 l 899 1144 l 899 1062 l 980 1062 l 980 572 l 1062 572 z "},"5":{"ha":1307,"x_min":0,"x_max":1144,"o":"m 82 1061 l 82 899 l 163 899 l 163 980 l 245 980 l 245 1061 l 82 1061 m 1062 1062 l 1144 1062 l 1144 899 l 1062 899 l 1062 817 l 572 817 l 572 735 l 980 735 l 980 654 l 1062 654 l 1062 572 l 1144 572 l 1144 163 l 1062 163 l 1062 82 l 980 82 l 980 0 l 82 0 l 82 82 l 0 82 l 0 327 l 82 327 l 82 408 l 735 408 l 735 490 l 82 490 l 82 572 l 0 572 l 0 1062 l 82 1062 l 82 1144 l 1062 1144 l 1062 1062 z "},"6":{"ha":1307,"x_min":0,"x_max":1144,"o":"m 1062 654 l 980 654 l 980 735 l 572 735 l 572 899 l 980 899 l 980 980 l 1062 980 l 1062 1062 l 980 1062 l 980 1144 l 163 1144 l 163 1062 l 245 1062 l 245 980 l 163 980 l 163 899 l 82 899 l 82 980 l 0 980 l 0 163 l 82 163 l 82 82 l 163 82 l 163 0 l 980 0 l 980 82 l 1062 82 l 1062 163 l 1144 163 l 1144 572 l 1062 572 l 1062 654 m 572 327 l 572 490 l 817 490 l 817 327 l 572 327 z "},"7":{"ha":1307,"x_min":0,"x_max":1144,"o":"m 82 900 l 163 900 l 163 980 l 245 980 l 245 1061 l 82 1061 l 82 900 m 82 1062 l 82 1144 l 1062 1144 l 1062 1062 l 1144 1062 l 1144 735 l 1062 735 l 1062 654 l 980 654 l 980 572 l 899 572 l 899 490 l 817 490 l 817 82 l 735 82 l 735 0 l 408 0 l 408 82 l 327 82 l 327 490 l 408 490 l 408 654 l 490 654 l 490 735 l 572 735 l 572 817 l 82 817 l 82 899 l 0 899 l 0 1062 l 82 1062 z "},"8":{"ha":1307,"x_min":0,"x_max":1144,"o":"m 1062 1062 l 980 1062 l 980 1144 l 163 1144 l 163 1062 l 245 1062 l 245 980 l 163 980 l 163 899 l 82 899 l 82 980 l 0 980 l 0 654 l 82 654 l 82 572 l 0 572 l 0 163 l 82 163 l 82 82 l 163 82 l 163 0 l 980 0 l 980 82 l 1062 82 l 1062 163 l 1144 163 l 1144 572 l 1062 572 l 1062 654 l 1144 654 l 1144 980 l 1062 980 l 1062 1062 m 817 735 l 572 735 l 572 899 l 817 899 l 817 735 m 572 327 l 572 490 l 817 490 l 817 327 l 572 327 z "},"9":{"ha":1307,"x_min":0,"x_max":1144,"o":"m 1062 1062 l 980 1062 l 980 1144 l 163 1144 l 163 1062 l 245 1062 l 245 980 l 163 980 l 163 899 l 82 899 l 82 980 l 0 980 l 0 654 l 82 654 l 82 572 l 163 572 l 163 490 l 572 490 l 572 408 l 490 408 l 490 327 l 408 327 l 408 245 l 327 245 l 327 163 l 245 163 l 245 82 l 327 82 l 327 0 l 654 0 l 654 82 l 735 82 l 735 163 l 817 163 l 817 245 l 899 245 l 899 327 l 980 327 l 980 408 l 1062 408 l 1062 572 l 1144 572 l 1144 980 l 1062 980 l 1062 1062 m 572 735 l 572 899 l 817 899 l 817 735 l 572 735 z "}," ":{"ha":1144,"x_min":0,"x_max":0,"o":""},"!":{"ha":735,"x_min":0,"x_max":572,"o":"m 82 1061 l 82 899 l 163 899 l 163 980 l 245 980 l 245 1061 l 82 1061 m 490 1144 l 490 1062 l 572 1062 l 572 735 l 490 735 l 490 572 l 408 572 l 408 490 l 163 490 l 163 572 l 82 572 l 82 735 l 0 735 l 0 1062 l 82 1062 l 82 1144 l 490 1144 m 408 408 l 408 327 l 490 327 l 490 82 l 408 82 l 408 0 l 163 0 l 163 82 l 82 82 l 82 327 l 163 327 l 163 408 l 408 408 z "},"\"":{"ha":1144,"x_min":0,"x_max":980,"o":"m 654 979 l 654 817 l 735 817 l 735 899 l 817 899 l 817 979 l 654 979 m 899 1062 l 899 980 l 980 980 l 980 572 l 899 572 l 899 490 l 654 490 l 654 572 l 572 572 l 572 980 l 654 980 l 654 1062 l 899 1062 m 82 979 l 82 817 l 163 817 l 163 899 l 245 899 l 245 979 l 82 979 m 327 1062 l 327 980 l 408 980 l 408 572 l 327 572 l 327 490 l 82 490 l 82 572 l 0 572 l 0 980 l 82 980 l 82 1062 l 327 1062 z "},"#":{"ha":1307,"x_min":0,"x_max":1144,"o":"m 245 1061 l 245 899 l 327 899 l 327 980 l 408 980 l 408 1061 l 245 1061 m 1062 899 l 1062 817 l 1144 817 l 1144 735 l 1062 735 l 1062 654 l 980 654 l 980 490 l 1062 490 l 1062 408 l 1144 408 l 1144 327 l 1062 327 l 1062 245 l 980 245 l 980 82 l 899 82 l 899 0 l 735 0 l 735 82 l 654 82 l 654 327 l 572 327 l 572 82 l 490 82 l 490 0 l 245 0 l 245 82 l 163 82 l 163 245 l 82 245 l 82 327 l 0 327 l 0 408 l 82 408 l 82 490 l 163 490 l 163 654 l 82 654 l 82 735 l 0 735 l 0 817 l 82 817 l 82 899 l 163 899 l 163 1062 l 245 1062 l 245 1144 l 490 1144 l 490 1062 l 572 1062 l 572 817 l 654 817 l 654 1062 l 735 1062 l 735 1144 l 899 1144 l 899 1062 l 980 1062 l 980 899 l 1062 899 m 572 654 l 572 490 l 654 490 l 654 654 l 572 654 z "},"$":{"ha":1144,"x_min":0,"x_max":0,"o":""},"%":{"ha":1307,"x_min":0,"x_max":1144,"o":"m 1062 1144 l 1062 1062 l 1144 1062 l 1144 817 l 1062 817 l 1062 735 l 980 735 l 980 654 l 899 654 l 899 572 l 817 572 l 817 490 l 735 490 l 735 408 l 654 408 l 654 327 l 572 327 l 572 245 l 490 245 l 490 163 l 408 163 l 408 82 l 327 82 l 327 0 l 82 0 l 82 82 l 0 82 l 0 327 l 82 327 l 82 408 l 163 408 l 163 490 l 245 490 l 245 572 l 327 572 l 327 654 l 408 654 l 408 735 l 490 735 l 490 817 l 572 817 l 572 899 l 654 899 l 654 980 l 735 980 l 735 1062 l 817 1062 l 817 1144 l 1062 1144 m 82 1061 l 82 899 l 163 899 l 163 980 l 245 980 l 245 1061 l 82 1061 m 82 735 l 82 817 l 0 817 l 0 1062 l 82 1062 l 82 1144 l 327 1144 l 327 1062 l 408 1062 l 408 817 l 327 817 l 327 735 l 82 735 m 1062 408 l 1062 327 l 1144 327 l 1144 82 l 1062 82 l 1062 0 l 817 0 l 817 82 l 735 82 l 735 327 l 817 327 l 817 408 l 1062 408 z "},"&":{"ha":1144,"x_min":0,"x_max":0,"o":""},"'":{"ha":572,"x_min":0,"x_max":408,"o":"m 82 979 l 82 817 l 163 817 l 163 899 l 245 899 l 245 979 l 82 979 m 327 1062 l 327 980 l 408 980 l 408 572 l 327 572 l 327 490 l 82 490 l 82 572 l 0 572 l 0 980 l 82 980 l 82 1062 l 327 1062 z "},"(":{"ha":817,"x_min":0,"x_max":654,"o":"m 572 1144 l 327 1144 l 327 1062 l 408 1062 l 408 980 l 327 980 l 327 899 l 245 899 l 245 980 l 163 980 l 163 899 l 82 899 l 82 735 l 0 735 l 0 408 l 82 408 l 82 245 l 163 245 l 163 163 l 245 163 l 245 82 l 327 82 l 327 0 l 572 0 l 572 82 l 654 82 l 654 245 l 572 245 l 572 327 l 490 327 l 490 408 l 408 408 l 408 735 l 490 735 l 490 817 l 572 817 l 572 899 l 654 899 l 654 1062 l 572 1062 l 572 1144 z "},")":{"ha":817,"x_min":0,"x_max":654,"o":"m 82 901 l 163 901 l 163 980 l 245 980 l 245 1061 l 82 1061 l 82 901 m 408 82 l 327 82 l 327 0 l 82 0 l 82 82 l 0 82 l 0 245 l 82 245 l 82 327 l 163 327 l 163 408 l 245 408 l 245 735 l 163 735 l 163 817 l 82 817 l 82 899 l 0 899 l 0 1062 l 82 1062 l 82 1144 l 327 1144 l 327 1062 l 408 1062 l 408 980 l 490 980 l 490 899 l 572 899 l 572 735 l 654 735 l 654 408 l 572 408 l 572 245 l 490 245 l 490 163 l 408 163 l 408 82 z "},"*":{"ha":735,"x_min":0,"x_max":572,"o":"m 82 900 l 163 900 l 163 980 l 245 980 l 245 1061 l 82 1061 l 82 900 m 82 1062 l 82 1144 l 245 1144 l 245 1062 l 327 1062 l 327 1144 l 490 1144 l 490 1062 l 572 1062 l 572 899 l 490 899 l 490 817 l 572 817 l 572 654 l 490 654 l 490 572 l 327 572 l 327 654 l 245 654 l 245 572 l 82 572 l 82 654 l 0 654 l 0 817 l 82 817 l 82 899 l 0 899 l 0 1062 l 82 1062 z "},"+":{"ha":1307,"x_min":0,"x_max":1144,"o":"m 408 1061 l 408 899 l 490 899 l 490 980 l 572 980 l 572 1061 l 408 1061 m 1062 735 l 1062 654 l 1144 654 l 1144 490 l 1062 490 l 1062 408 l 817 408 l 817 82 l 735 82 l 735 0 l 408 0 l 408 82 l 327 82 l 327 408 l 82 408 l 82 490 l 0 490 l 0 654 l 82 654 l 82 735 l 327 735 l 327 1062 l 408 1062 l 408 1144 l 735 1144 l 735 1062 l 817 1062 l 817 735 l 1062 735 z "},",":{"ha":572,"x_min":0,"x_max":408,"o":"m 82 407 l 82 245 l 163 245 l 163 327 l 245 327 l 245 407 l 82 407 m 327 490 l 327 408 l 408 408 l 408 0 l 327 0 l 327 -82 l 82 -82 l 82 0 l 0 0 l 0 408 l 82 408 l 82 490 l 327 490 z "},"-":{"ha":1144,"x_min":0,"x_max":980,"o":"m 82 652 l 82 490 l 163 490 l 163 572 l 245 572 l 245 652 l 82 652 m 899 654 l 980 654 l 980 408 l 899 408 l 899 327 l 82 327 l 82 408 l 0 408 l 0 654 l 82 654 l 82 735 l 899 735 l 899 654 z "},".":{"ha":572,"x_min":0,"x_max":408,"o":"m 82 407 l 82 245 l 163 245 l 163 327 l 245 327 l 245 407 l 82 407 m 327 490 l 327 408 l 408 408 l 408 163 l 327 163 l 327 82 l 82 82 l 82 163 l 0 163 l 0 408 l 82 408 l 82 490 l 327 490 z "},"/":{"ha":1307,"x_min":0,"x_max":1144,"o":"m 1062 1144 l 817 1144 l 817 1062 l 735 1062 l 735 980 l 654 980 l 654 899 l 572 899 l 572 817 l 490 817 l 490 735 l 408 735 l 408 654 l 327 654 l 327 572 l 245 572 l 245 490 l 163 490 l 163 408 l 82 408 l 82 327 l 0 327 l 0 82 l 82 82 l 82 0 l 327 0 l 327 82 l 408 82 l 408 163 l 490 163 l 490 245 l 572 245 l 572 327 l 654 327 l 654 408 l 735 408 l 735 490 l 817 490 l 817 572 l 899 572 l 899 654 l 980 654 l 980 735 l 1062 735 l 1062 817 l 1144 817 l 1144 1062 l 1062 1062 l 1062 1144 z "},":":{"ha":572,"x_min":0,"x_max":408,"o":"m 82 979 l 82 817 l 163 817 l 163 899 l 245 899 l 245 979 l 82 979 m 327 1062 l 327 980 l 408 980 l 408 735 l 327 735 l 327 654 l 82 654 l 82 735 l 0 735 l 0 980 l 82 980 l 82 1062 l 327 1062 m 327 490 l 327 408 l 408 408 l 408 163 l 327 163 l 327 82 l 82 82 l 82 163 l 0 163 l 0 408 l 82 408 l 82 490 l 327 490 z "},";":{"ha":572,"x_min":0,"x_max":408,"o":"m 82 979 l 82 817 l 163 817 l 163 899 l 245 899 l 245 979 l 82 979 m 327 1062 l 327 980 l 408 980 l 408 735 l 327 735 l 327 654 l 82 654 l 82 735 l 0 735 l 0 980 l 82 980 l 82 1062 l 327 1062 m 327 490 l 327 408 l 408 408 l 408 0 l 327 0 l 327 -82 l 82 -82 l 82 0 l 0 0 l 0 408 l 82 408 l 82 490 l 327 490 z "},"<":{"ha":899,"x_min":0,"x_max":735,"o":"m 654 327 l 654 245 l 735 245 l 735 82 l 654 82 l 654 0 l 408 0 l 408 82 l 327 82 l 327 163 l 245 163 l 245 245 l 163 245 l 163 327 l 82 327 l 82 408 l 0 408 l 0 735 l 82 735 l 82 817 l 163 817 l 163 899 l 245 899 l 245 980 l 327 980 l 327 899 l 408 899 l 408 980 l 490 980 l 490 1062 l 408 1062 l 408 1144 l 654 1144 l 654 1062 l 735 1062 l 735 899 l 654 899 l 654 817 l 572 817 l 572 735 l 490 735 l 490 654 l 408 654 l 408 490 l 490 490 l 490 408 l 572 408 l 572 327 l 654 327 z "},"=":{"ha":1144,"x_min":0,"x_max":980,"o":"m 82 979 l 82 817 l 163 817 l 163 899 l 245 899 l 245 979 l 82 979 m 899 1062 l 899 980 l 980 980 l 980 735 l 899 735 l 899 654 l 82 654 l 82 735 l 0 735 l 0 980 l 82 980 l 82 1062 l 899 1062 m 899 490 l 899 408 l 980 408 l 980 163 l 899 163 l 899 82 l 82 82 l 82 163 l 0 163 l 0 408 l 82 408 l 82 490 l 899 490 z "},">":{"ha":899,"x_min":0,"x_max":735,"o":"m 82 1061 l 82 900 l 163 900 l 163 980 l 245 980 l 245 1061 l 82 1061 m 82 327 l 163 327 l 163 408 l 245 408 l 245 490 l 327 490 l 327 654 l 245 654 l 245 735 l 163 735 l 163 817 l 82 817 l 82 899 l 0 899 l 0 1062 l 82 1062 l 82 1144 l 327 1144 l 327 1062 l 408 1062 l 408 980 l 490 980 l 490 899 l 572 899 l 572 817 l 654 817 l 654 735 l 735 735 l 735 408 l 654 408 l 654 327 l 572 327 l 572 245 l 490 245 l 490 163 l 408 163 l 408 82 l 327 82 l 327 0 l 82 0 l 82 82 l 0 82 l 0 245 l 82 245 l 82 327 z "},"?":{"ha":1307,"x_min":0,"x_max":1144,"o":"m 82 900 l 163 900 l 163 980 l 245 980 l 245 1061 l 82 1061 l 82 900 m 82 1062 l 82 1144 l 980 1144 l 980 1062 l 1062 1062 l 1062 980 l 1144 980 l 1144 654 l 1062 654 l 1062 572 l 980 572 l 980 490 l 408 490 l 408 572 l 327 572 l 327 654 l 408 654 l 408 735 l 735 735 l 735 817 l 82 817 l 82 899 l 0 899 l 0 1062 l 82 1062 m 654 408 l 654 327 l 735 327 l 735 82 l 654 82 l 654 0 l 408 0 l 408 82 l 327 82 l 327 327 l 408 327 l 408 408 l 654 408 z "},"@":{"ha":1144,"x_min":0,"x_max":0,"o":""},"A":{"ha":1307,"x_min":0,"x_max":1144,"o":"m 1062 980 l 980 980 l 980 1062 l 899 1062 l 899 1144 l 163 1144 l 163 1062 l 245 1062 l 245 980 l 163 980 l 163 899 l 82 899 l 82 980 l 0 980 l 0 82 l 82 82 l 82 0 l 490 0 l 490 82 l 572 82 l 572 572 l 817 572 l 817 82 l 899 82 l 899 0 l 1062 0 l 1062 82 l 1144 82 l 1144 899 l 1062 899 l 1062 980 m 572 899 l 817 899 l 817 735 l 572 735 l 572 899 z "},"B":{"ha":1307,"x_min":0,"x_max":1144,"o":"m 82 1061 l 82 899 l 163 899 l 163 980 l 245 980 l 245 1061 l 82 1061 m 1062 1062 l 1062 980 l 1144 980 l 1144 654 l 1062 654 l 1062 572 l 1144 572 l 1144 163 l 1062 163 l 1062 82 l 980 82 l 980 0 l 82 0 l 82 82 l 0 82 l 0 1062 l 82 1062 l 82 1144 l 980 1144 l 980 1062 l 1062 1062 m 817 735 l 817 899 l 572 899 l 572 735 l 817 735 m 572 327 l 817 327 l 817 490 l 572 490 l 572 327 z "},"C":{"ha":1307,"x_min":0,"x_max":1144,"o":"m 1062 1144 l 163 1144 l 163 1062 l 245 1062 l 245 980 l 163 980 l 163 899 l 82 899 l 82 980 l 0 980 l 0 163 l 82 163 l 82 82 l 163 82 l 163 0 l 1062 0 l 1062 82 l 1144 82 l 1144 245 l 1062 245 l 1062 327 l 572 327 l 572 899 l 1062 899 l 1062 980 l 1144 980 l 1144 1062 l 1062 1062 l 1062 1144 z "},"D":{"ha":1307,"x_min":0,"x_max":1144,"o":"m 82 1061 l 82 899 l 163 899 l 163 980 l 245 980 l 245 1061 l 82 1061 m 1062 980 l 1062 899 l 1144 899 l 1144 163 l 1062 163 l 1062 82 l 980 82 l 980 0 l 82 0 l 82 82 l 0 82 l 0 1062 l 82 1062 l 82 1144 l 899 1144 l 899 1062 l 980 1062 l 980 980 l 1062 980 m 817 817 l 735 817 l 735 899 l 572 899 l 572 327 l 735 327 l 735 408 l 817 408 l 817 817 z "},"E":{"ha":1307,"x_min":0,"x_max":1144,"o":"m 82 1061 l 82 899 l 163 899 l 163 980 l 245 980 l 245 1061 l 82 1061 m 1062 1144 l 1062 1062 l 1144 1062 l 1144 980 l 1062 980 l 1062 899 l 572 899 l 572 735 l 1062 735 l 1062 654 l 1144 654 l 1144 572 l 1062 572 l 1062 490 l 572 490 l 572 327 l 1062 327 l 1062 245 l 1144 245 l 1144 82 l 1062 82 l 1062 0 l 82 0 l 82 82 l 0 82 l 0 1062 l 82 1062 l 82 1144 l 1062 1144 z "},"F":{"ha":1307,"x_min":0,"x_max":1144,"o":"m 82 1061 l 82 899 l 163 899 l 163 980 l 245 980 l 245 1061 l 82 1061 m 1062 1144 l 1062 1062 l 1144 1062 l 1144 980 l 1062 980 l 1062 899 l 572 899 l 572 735 l 1062 735 l 1062 654 l 1144 654 l 1144 572 l 1062 572 l 1062 490 l 572 490 l 572 82 l 490 82 l 490 0 l 82 0 l 82 82 l 0 82 l 0 1062 l 82 1062 l 82 1144 l 1062 1144 z "},"G":{"ha":1307,"x_min":0,"x_max":1144,"o":"m 1062 1144 l 163 1144 l 163 1062 l 245 1062 l 245 980 l 163 980 l 163 899 l 82 899 l 82 980 l 0 980 l 0 163 l 82 163 l 82 82 l 163 82 l 163 0 l 980 0 l 980 82 l 1062 82 l 1062 163 l 1144 163 l 1144 654 l 1062 654 l 1062 735 l 735 735 l 735 654 l 654 654 l 654 572 l 735 572 l 735 490 l 817 490 l 817 327 l 572 327 l 572 899 l 1062 899 l 1062 980 l 1144 980 l 1144 1062 l 1062 1062 l 1062 1144 z "},"H":{"ha":1307,"x_min":0,"x_max":1144,"o":"m 82 1061 l 82 899 l 163 899 l 163 980 l 245 980 l 245 1061 l 82 1061 m 1062 1062 l 1144 1062 l 1144 82 l 1062 82 l 1062 0 l 817 0 l 817 82 l 735 82 l 735 490 l 572 490 l 572 82 l 490 82 l 490 0 l 82 0 l 82 82 l 0 82 l 0 1062 l 82 1062 l 82 1144 l 490 1144 l 490 1062 l 572 1062 l 572 735 l 735 735 l 735 1062 l 817 1062 l 817 1144 l 1062 1144 l 1062 1062 z "},"I":{"ha":735,"x_min":0,"x_max":572,"o":"m 82 1061 l 82 899 l 163 899 l 163 980 l 245 980 l 245 1061 l 82 1061 m 490 1144 l 490 1062 l 572 1062 l 572 82 l 490 82 l 490 0 l 82 0 l 82 82 l 0 82 l 0 1062 l 82 1062 l 82 1144 l 490 1144 z "},"J":{"ha":1307,"x_min":0,"x_max":1144,"o":"m 654 1061 l 654 899 l 735 899 l 735 980 l 817 980 l 817 1061 l 654 1061 m 1062 1144 l 1062 1062 l 1144 1062 l 1144 163 l 1062 163 l 1062 82 l 980 82 l 980 0 l 163 0 l 163 82 l 82 82 l 82 163 l 0 163 l 0 572 l 82 572 l 82 654 l 327 654 l 327 572 l 408 572 l 408 327 l 572 327 l 572 1062 l 654 1062 l 654 1144 l 1062 1144 z "},"K":{"ha":1307,"x_min":0,"x_max":1144,"o":"m 82 1061 l 82 899 l 163 899 l 163 980 l 245 980 l 245 1061 l 82 1061 m 1062 1144 l 1062 1062 l 1144 1062 l 1144 817 l 1062 817 l 1062 735 l 980 735 l 980 654 l 899 654 l 899 572 l 980 572 l 980 490 l 1062 490 l 1062 408 l 1144 408 l 1144 82 l 1062 82 l 1062 0 l 899 0 l 899 82 l 817 82 l 817 163 l 735 163 l 735 245 l 654 245 l 654 327 l 572 327 l 572 82 l 490 82 l 490 0 l 82 0 l 82 82 l 0 82 l 0 1062 l 82 1062 l 82 1144 l 490 1144 l 490 1062 l 572 1062 l 572 817 l 654 817 l 654 899 l 735 899 l 735 980 l 817 980 l 817 1062 l 899 1062 l 899 1144 l 1062 1144 z "},"L":{"ha":1225,"x_min":0,"x_max":1062,"o":"m 82 1061 l 82 899 l 163 899 l 163 980 l 245 980 l 245 1061 l 82 1061 m 980 327 l 980 245 l 1062 245 l 1062 82 l 980 82 l 980 0 l 82 0 l 82 82 l 0 82 l 0 1062 l 82 1062 l 82 1144 l 490 1144 l 490 1062 l 572 1062 l 572 327 l 980 327 z "},"M":{"ha":1389,"x_min":0,"x_max":1225,"o":"m 82 1061 l 82 899 l 163 899 l 163 980 l 245 980 l 245 1061 l 82 1061 m 1144 1144 l 1144 1062 l 1225 1062 l 1225 82 l 1144 82 l 1144 0 l 899 0 l 899 82 l 817 82 l 817 327 l 735 327 l 735 245 l 654 245 l 654 327 l 572 327 l 572 82 l 490 82 l 490 0 l 82 0 l 82 82 l 0 82 l 0 1062 l 82 1062 l 82 1144 l 490 1144 l 490 1062 l 572 1062 l 572 735 l 654 735 l 654 654 l 735 654 l 735 735 l 817 735 l 817 1062 l 899 1062 l 899 1144 l 1144 1144 z "},"N":{"ha":1307,"x_min":0,"x_max":1144,"o":"m 82 1061 l 82 899 l 163 899 l 163 980 l 245 980 l 245 1061 l 82 1061 m 1062 1144 l 1062 1062 l 1144 1062 l 1144 82 l 1062 82 l 1062 0 l 817 0 l 817 82 l 735 82 l 735 327 l 654 327 l 654 408 l 572 408 l 572 82 l 490 82 l 490 0 l 82 0 l 82 82 l 0 82 l 0 1062 l 82 1062 l 82 1144 l 490 1144 l 490 1062 l 572 1062 l 572 735 l 654 735 l 654 654 l 735 654 l 735 1062 l 817 1062 l 817 1144 l 1062 1144 z "},"O":{"ha":1307,"x_min":0,"x_max":1144,"o":"m 1062 1062 l 980 1062 l 980 1144 l 163 1144 l 163 1062 l 245 1062 l 245 980 l 163 980 l 163 899 l 82 899 l 82 980 l 0 980 l 0 163 l 82 163 l 82 82 l 163 82 l 163 0 l 980 0 l 980 82 l 1062 82 l 1062 163 l 1144 163 l 1144 980 l 1062 980 l 1062 1062 m 572 327 l 572 899 l 817 899 l 817 327 l 572 327 z "},"P":{"ha":1307,"x_min":0,"x_max":1144,"o":"m 82 1061 l 82 899 l 163 899 l 163 980 l 245 980 l 245 1061 l 82 1061 m 1062 980 l 1144 980 l 1144 490 l 1062 490 l 1062 408 l 980 408 l 980 327 l 572 327 l 572 82 l 490 82 l 490 0 l 82 0 l 82 82 l 0 82 l 0 1062 l 82 1062 l 82 1144 l 980 1144 l 980 1062 l 1062 1062 l 1062 980 m 572 899 l 572 572 l 735 572 l 735 899 l 572 899 z "},"Q":{"ha":1307,"x_min":0,"x_max":1144,"o":"m 1062 1062 l 980 1062 l 980 1144 l 163 1144 l 163 1062 l 245 1062 l 245 980 l 163 980 l 163 899 l 82 899 l 82 980 l 0 980 l 0 163 l 82 163 l 82 82 l 163 82 l 163 0 l 572 0 l 572 -82 l 654 -82 l 654 -163 l 980 -163 l 980 82 l 1062 82 l 1062 163 l 1144 163 l 1144 980 l 1062 980 l 1062 1062 m 572 327 l 572 899 l 817 899 l 817 327 l 572 327 z "},"R":{"ha":1307,"x_min":0,"x_max":1144,"o":"m 82 1061 l 82 899 l 163 899 l 163 980 l 245 980 l 245 1061 l 82 1061 m 1062 1062 l 1062 980 l 1144 980 l 1144 654 l 1062 654 l 1062 572 l 980 572 l 980 490 l 1062 490 l 1062 408 l 1144 408 l 1144 82 l 1062 82 l 1062 0 l 899 0 l 899 82 l 817 82 l 817 163 l 735 163 l 735 245 l 654 245 l 654 327 l 572 327 l 572 82 l 490 82 l 490 0 l 82 0 l 82 82 l 0 82 l 0 1062 l 82 1062 l 82 1144 l 980 1144 l 980 1062 l 1062 1062 m 817 735 l 817 899 l 572 899 l 572 735 l 817 735 z "},"S":{"ha":1307,"x_min":0,"x_max":1144,"o":"m 1062 1144 l 163 1144 l 163 1062 l 245 1062 l 245 980 l 163 980 l 163 899 l 82 899 l 82 980 l 0 980 l 0 572 l 82 572 l 82 490 l 735 490 l 735 408 l 82 408 l 82 327 l 0 327 l 0 82 l 82 82 l 82 0 l 980 0 l 980 82 l 1062 82 l 1062 163 l 1144 163 l 1144 654 l 1062 654 l 1062 735 l 572 735 l 572 817 l 1062 817 l 1062 899 l 1144 899 l 1144 1062 l 1062 1062 l 1062 1144 z "},"T":{"ha":1307,"x_min":0,"x_max":1144,"o":"m 82 900 l 163 900 l 163 980 l 245 980 l 245 1061 l 82 1061 l 82 900 m 82 1062 l 82 1144 l 1062 1144 l 1062 1062 l 1144 1062 l 1144 899 l 1062 899 l 1062 817 l 817 817 l 817 82 l 735 82 l 735 0 l 408 0 l 408 82 l 327 82 l 327 817 l 82 817 l 82 899 l 0 899 l 0 1062 l 82 1062 z "},"U":{"ha":1307,"x_min":0,"x_max":1144,"o":"m 82 1061 l 82 899 l 163 899 l 163 980 l 245 980 l 245 1061 l 82 1061 m 1062 1144 l 1062 1062 l 1144 1062 l 1144 163 l 1062 163 l 1062 82 l 980 82 l 980 0 l 163 0 l 163 82 l 82 82 l 82 163 l 0 163 l 0 1062 l 82 1062 l 82 1144 l 490 1144 l 490 1062 l 572 1062 l 572 327 l 735 327 l 735 1062 l 817 1062 l 817 1144 l 1062 1144 z "},"V":{"ha":1307,"x_min":0,"x_max":1144,"o":"m 82 1061 l 82 899 l 163 899 l 163 980 l 245 980 l 245 1061 l 82 1061 m 1062 1062 l 1144 1062 l 1144 490 l 1062 490 l 1062 408 l 980 408 l 980 327 l 899 327 l 899 245 l 817 245 l 817 163 l 735 163 l 735 82 l 654 82 l 654 0 l 163 0 l 163 82 l 82 82 l 82 163 l 0 163 l 0 1062 l 82 1062 l 82 1144 l 490 1144 l 490 1062 l 572 1062 l 572 490 l 654 490 l 654 572 l 735 572 l 735 1062 l 817 1062 l 817 1144 l 1062 1144 l 1062 1062 z "},"W":{"ha":1389,"x_min":0,"x_max":1225,"o":"m 82 1061 l 82 899 l 163 899 l 163 980 l 245 980 l 245 1061 l 82 1061 m 1144 1144 l 1144 1062 l 1225 1062 l 1225 82 l 1144 82 l 1144 0 l 899 0 l 899 82 l 817 82 l 817 163 l 735 163 l 735 245 l 654 245 l 654 163 l 572 163 l 572 82 l 490 82 l 490 0 l 82 0 l 82 82 l 0 82 l 0 1062 l 82 1062 l 82 1144 l 490 1144 l 490 1062 l 572 1062 l 572 572 l 654 572 l 654 654 l 735 654 l 735 572 l 817 572 l 817 1062 l 899 1062 l 899 1144 l 1144 1144 z "},"X":{"ha":1307,"x_min":0,"x_max":1144,"o":"m 82 1061 l 82 899 l 163 899 l 163 980 l 245 980 l 245 1061 l 82 1061 m 1062 1062 l 1144 1062 l 1144 817 l 1062 817 l 1062 735 l 980 735 l 980 654 l 899 654 l 899 490 l 980 490 l 980 408 l 1062 408 l 1062 327 l 1144 327 l 1144 82 l 1062 82 l 1062 0 l 817 0 l 817 82 l 735 82 l 735 163 l 654 163 l 654 245 l 490 245 l 490 163 l 408 163 l 408 82 l 327 82 l 327 0 l 82 0 l 82 82 l 0 82 l 0 327 l 82 327 l 82 408 l 163 408 l 163 490 l 245 490 l 245 654 l 163 654 l 163 735 l 82 735 l 82 817 l 0 817 l 0 1062 l 82 1062 l 82 1144 l 327 1144 l 327 1062 l 408 1062 l 408 980 l 490 980 l 490 899 l 654 899 l 654 980 l 735 980 l 735 1062 l 817 1062 l 817 1144 l 1062 1144 l 1062 1062 z "},"Y":{"ha":1307,"x_min":0,"x_max":1144,"o":"m 82 1061 l 82 899 l 163 899 l 163 980 l 245 980 l 245 1061 l 82 1061 m 980 735 l 980 654 l 899 654 l 899 572 l 817 572 l 817 82 l 735 82 l 735 0 l 408 0 l 408 82 l 327 82 l 327 572 l 245 572 l 245 654 l 163 654 l 163 735 l 82 735 l 82 817 l 0 817 l 0 1062 l 82 1062 l 82 1144 l 408 1144 l 408 1062 l 490 1062 l 490 980 l 654 980 l 654 1062 l 735 1062 l 735 1144 l 1062 1144 l 1062 1062 l 1144 1062 l 1144 817 l 1062 817 l 1062 735 l 980 735 z "},"Z":{"ha":1307,"x_min":0,"x_max":1144,"o":"m 82 900 l 163 900 l 163 980 l 245 980 l 245 1061 l 82 1061 l 82 900 m 82 1062 l 82 1144 l 1062 1144 l 1062 1062 l 1144 1062 l 1144 817 l 1062 817 l 1062 735 l 980 735 l 980 654 l 899 654 l 899 572 l 817 572 l 817 490 l 735 490 l 735 408 l 1062 408 l 1062 327 l 1144 327 l 1144 82 l 1062 82 l 1062 0 l 82 0 l 82 82 l 0 82 l 0 327 l 82 327 l 82 408 l 163 408 l 163 490 l 245 490 l 245 572 l 327 572 l 327 654 l 408 654 l 408 735 l 490 735 l 490 817 l 82 817 l 82 899 l 0 899 l 0 1062 l 82 1062 z "},"[":{"ha":735,"x_min":0,"x_max":572,"o":"m 408 327 l 490 327 l 490 245 l 572 245 l 572 82 l 490 82 l 490 0 l 163 0 l 163 82 l 82 82 l 82 163 l 0 163 l 0 980 l 82 980 l 82 899 l 163 899 l 163 980 l 245 980 l 245 1062 l 163 1062 l 163 1144 l 490 1144 l 490 1062 l 572 1062 l 572 899 l 490 899 l 490 817 l 408 817 l 408 327 z "},"\\":{"ha":1307,"x_min":0,"x_max":1144,"o":"m 82 1061 l 82 899 l 163 899 l 163 980 l 245 980 l 245 1061 l 82 1061 m 1062 327 l 1144 327 l 1144 82 l 1062 82 l 1062 0 l 817 0 l 817 82 l 735 82 l 735 163 l 654 163 l 654 245 l 572 245 l 572 327 l 490 327 l 490 408 l 408 408 l 408 490 l 327 490 l 327 572 l 245 572 l 245 654 l 163 654 l 163 735 l 82 735 l 82 817 l 0 817 l 0 1062 l 82 1062 l 82 1144 l 327 1144 l 327 1062 l 408 1062 l 408 980 l 490 980 l 490 899 l 572 899 l 572 817 l 654 817 l 654 735 l 735 735 l 735 654 l 817 654 l 817 572 l 899 572 l 899 490 l 980 490 l 980 408 l 1062 408 l 1062 327 z "},"]":{"ha":735,"x_min":0,"x_max":572,"o":"m 82 1061 l 82 900 l 163 900 l 163 980 l 245 980 l 245 1061 l 82 1061 m 163 327 l 163 817 l 82 817 l 82 899 l 0 899 l 0 1062 l 82 1062 l 82 1144 l 408 1144 l 408 1062 l 490 1062 l 490 980 l 572 980 l 572 163 l 490 163 l 490 82 l 408 82 l 408 0 l 82 0 l 82 82 l 0 82 l 0 245 l 82 245 l 82 327 l 163 327 z "},"^":{"ha":817,"x_min":0,"x_max":654,"o":"m 82 979 l 82 817 l 163 817 l 163 899 l 245 899 l 245 979 l 82 979 m 572 980 l 654 980 l 654 735 l 572 735 l 572 654 l 82 654 l 82 735 l 0 735 l 0 980 l 82 980 l 82 1062 l 572 1062 l 572 980 z "},"_":{"ha":1307,"x_min":0,"x_max":1144,"o":"m 82 325 l 82 163 l 163 163 l 163 245 l 245 245 l 245 325 l 82 325 m 1062 408 l 1062 327 l 1144 327 l 1144 82 l 1062 82 l 1062 0 l 82 0 l 82 82 l 0 82 l 0 327 l 82 327 l 82 408 l 1062 408 z "},"`":{"ha":817,"x_min":0,"x_max":654,"o":"m 82 979 l 82 817 l 163 817 l 163 899 l 245 899 l 245 979 l 82 979 m 572 980 l 654 980 l 654 735 l 572 735 l 572 654 l 82 654 l 82 735 l 0 735 l 0 980 l 82 980 l 82 1062 l 572 1062 l 572 980 z "},"a":{"ha":1144,"x_min":0,"x_max":980,"o":"m 899 899 l 817 899 l 817 980 l 163 980 l 163 899 l 245 899 l 245 817 l 163 817 l 163 735 l 82 735 l 82 817 l 0 817 l 0 82 l 82 82 l 82 0 l 408 0 l 408 82 l 490 82 l 490 408 l 735 408 l 735 82 l 817 82 l 817 0 l 899 0 l 899 82 l 980 82 l 980 817 l 899 817 l 899 899 m 735 654 l 490 654 l 490 735 l 735 735 l 735 654 z "},"b":{"ha":1144,"x_min":0,"x_max":980,"o":"m 82 897 l 82 735 l 163 735 l 163 817 l 245 817 l 245 897 l 82 897 m 899 899 l 899 817 l 980 817 l 980 572 l 899 572 l 899 490 l 980 490 l 980 163 l 899 163 l 899 82 l 817 82 l 817 0 l 82 0 l 82 82 l 0 82 l 0 899 l 82 899 l 82 980 l 817 980 l 817 899 l 899 899 m 735 327 l 735 408 l 490 408 l 490 327 l 735 327 m 490 654 l 735 654 l 735 735 l 490 735 l 490 654 z "},"c":{"ha":1144,"x_min":0,"x_max":980,"o":"m 899 980 l 163 980 l 163 899 l 245 899 l 245 817 l 163 817 l 163 735 l 82 735 l 82 817 l 0 817 l 0 163 l 82 163 l 82 82 l 163 82 l 163 0 l 899 0 l 899 82 l 980 82 l 980 245 l 899 245 l 899 327 l 490 327 l 490 735 l 899 735 l 899 817 l 980 817 l 980 899 l 899 899 l 899 980 z "},"d":{"ha":1144,"x_min":0,"x_max":980,"o":"m 82 897 l 82 735 l 163 735 l 163 817 l 245 817 l 245 897 l 82 897 m 899 817 l 899 735 l 980 735 l 980 163 l 899 163 l 899 82 l 817 82 l 817 0 l 82 0 l 82 82 l 0 82 l 0 899 l 82 899 l 82 980 l 735 980 l 735 899 l 817 899 l 817 817 l 899 817 m 735 654 l 654 654 l 654 735 l 490 735 l 490 327 l 654 327 l 654 408 l 735 408 l 735 654 z "},"e":{"ha":1144,"x_min":0,"x_max":980,"o":"m 82 897 l 82 735 l 163 735 l 163 817 l 245 817 l 245 897 l 82 897 m 899 980 l 899 899 l 980 899 l 980 817 l 899 817 l 899 735 l 490 735 l 490 654 l 899 654 l 899 572 l 980 572 l 980 490 l 899 490 l 899 408 l 490 408 l 490 327 l 899 327 l 899 245 l 980 245 l 980 82 l 899 82 l 899 0 l 82 0 l 82 82 l 0 82 l 0 899 l 82 899 l 82 980 l 899 980 z "},"f":{"ha":1144,"x_min":0,"x_max":980,"o":"m 82 897 l 82 735 l 163 735 l 163 817 l 245 817 l 245 897 l 82 897 m 899 980 l 899 899 l 980 899 l 980 817 l 899 817 l 899 735 l 490 735 l 490 654 l 899 654 l 899 572 l 980 572 l 980 490 l 899 490 l 899 408 l 490 408 l 490 82 l 408 82 l 408 0 l 82 0 l 82 82 l 0 82 l 0 899 l 82 899 l 82 980 l 899 980 z "},"g":{"ha":1144,"x_min":0,"x_max":980,"o":"m 899 980 l 163 980 l 163 899 l 245 899 l 245 817 l 163 817 l 163 735 l 82 735 l 82 817 l 0 817 l 0 163 l 82 163 l 82 82 l 163 82 l 163 0 l 817 0 l 817 82 l 899 82 l 899 163 l 980 163 l 980 572 l 899 572 l 899 654 l 654 654 l 654 572 l 572 572 l 572 490 l 654 490 l 654 408 l 735 408 l 735 327 l 490 327 l 490 735 l 899 735 l 899 817 l 980 817 l 980 899 l 899 899 l 899 980 z "},"h":{"ha":1144,"x_min":0,"x_max":980,"o":"m 82 897 l 82 735 l 163 735 l 163 817 l 245 817 l 245 897 l 82 897 m 899 899 l 980 899 l 980 82 l 899 82 l 899 0 l 735 0 l 735 82 l 654 82 l 654 408 l 490 408 l 490 82 l 408 82 l 408 0 l 82 0 l 82 82 l 0 82 l 0 899 l 82 899 l 82 980 l 408 980 l 408 899 l 490 899 l 490 654 l 654 654 l 654 899 l 735 899 l 735 980 l 899 980 l 899 899 z "},"i":{"ha":654,"x_min":0,"x_max":490,"o":"m 82 897 l 82 735 l 163 735 l 163 817 l 245 817 l 245 897 l 82 897 m 408 980 l 408 899 l 490 899 l 490 82 l 408 82 l 408 0 l 82 0 l 82 82 l 0 82 l 0 899 l 82 899 l 82 980 l 408 980 z "},"j":{"ha":1144,"x_min":0,"x_max":980,"o":"m 572 897 l 572 735 l 654 735 l 654 817 l 735 817 l 735 897 l 572 897 m 899 980 l 899 899 l 980 899 l 980 163 l 899 163 l 899 82 l 817 82 l 817 0 l 163 0 l 163 82 l 82 82 l 82 163 l 0 163 l 0 490 l 82 490 l 82 572 l 245 572 l 245 490 l 327 490 l 327 327 l 490 327 l 490 899 l 572 899 l 572 980 l 899 980 z "},"k":{"ha":1144,"x_min":0,"x_max":980,"o":"m 82 897 l 82 735 l 163 735 l 163 817 l 245 817 l 245 897 l 82 897 m 899 980 l 899 899 l 980 899 l 980 735 l 899 735 l 899 654 l 817 654 l 817 572 l 735 572 l 735 490 l 817 490 l 817 408 l 899 408 l 899 327 l 980 327 l 980 82 l 899 82 l 899 0 l 735 0 l 735 82 l 654 82 l 654 163 l 572 163 l 572 245 l 490 245 l 490 82 l 408 82 l 408 0 l 82 0 l 82 82 l 0 82 l 0 899 l 82 899 l 82 980 l 408 980 l 408 899 l 490 899 l 490 735 l 572 735 l 572 817 l 654 817 l 654 899 l 735 899 l 735 980 l 899 980 z "},"l":{"ha":1062,"x_min":0,"x_max":899,"o":"m 82 897 l 82 735 l 163 735 l 163 817 l 245 817 l 245 897 l 82 897 m 817 327 l 817 245 l 899 245 l 899 82 l 817 82 l 817 0 l 82 0 l 82 82 l 0 82 l 0 899 l 82 899 l 82 980 l 408 980 l 408 899 l 490 899 l 490 327 l 817 327 z "},"m":{"ha":1225,"x_min":0,"x_max":1062,"o":"m 82 897 l 82 735 l 163 735 l 163 817 l 245 817 l 245 897 l 82 897 m 980 980 l 980 899 l 1062 899 l 1062 82 l 980 82 l 980 0 l 817 0 l 817 82 l 735 82 l 735 408 l 654 408 l 654 327 l 572 327 l 572 408 l 490 408 l 490 82 l 408 82 l 408 0 l 82 0 l 82 82 l 0 82 l 0 899 l 82 899 l 82 980 l 408 980 l 408 899 l 490 899 l 490 735 l 572 735 l 572 654 l 654 654 l 654 735 l 735 735 l 735 899 l 817 899 l 817 980 l 980 980 z "},"n":{"ha":1144,"x_min":0,"x_max":980,"o":"m 82 897 l 82 735 l 163 735 l 163 817 l 245 817 l 245 897 l 82 897 m 899 980 l 899 899 l 980 899 l 980 82 l 899 82 l 899 0 l 735 0 l 735 82 l 654 82 l 654 408 l 572 408 l 572 490 l 490 490 l 490 82 l 408 82 l 408 0 l 82 0 l 82 82 l 0 82 l 0 899 l 82 899 l 82 980 l 408 980 l 408 899 l 490 899 l 490 735 l 572 735 l 572 654 l 654 654 l 654 899 l 735 899 l 735 980 l 899 980 z "},"o":{"ha":1144,"x_min":0,"x_max":980,"o":"m 899 899 l 817 899 l 817 980 l 163 980 l 163 899 l 245 899 l 245 817 l 163 817 l 163 735 l 82 735 l 82 817 l 0 817 l 0 163 l 82 163 l 82 82 l 163 82 l 163 0 l 817 0 l 817 82 l 899 82 l 899 163 l 980 163 l 980 817 l 899 817 l 899 899 m 735 327 l 490 327 l 490 735 l 735 735 l 735 327 z "},"p":{"ha":1144,"x_min":0,"x_max":980,"o":"m 82 897 l 82 735 l 163 735 l 163 817 l 245 817 l 245 897 l 82 897 m 899 817 l 980 817 l 980 490 l 899 490 l 899 408 l 817 408 l 817 327 l 490 327 l 490 82 l 408 82 l 408 0 l 82 0 l 82 82 l 0 82 l 0 899 l 82 899 l 82 980 l 817 980 l 817 899 l 899 899 l 899 817 m 490 735 l 490 490 l 654 490 l 654 735 l 490 735 z "},"q":{"ha":1144,"x_min":0,"x_max":980,"o":"m 899 899 l 817 899 l 817 980 l 163 980 l 163 899 l 245 899 l 245 817 l 163 817 l 163 735 l 82 735 l 82 817 l 0 817 l 0 163 l 82 163 l 82 82 l 163 82 l 163 0 l 490 0 l 490 -82 l 572 -82 l 572 -163 l 817 -163 l 817 82 l 899 82 l 899 163 l 980 163 l 980 817 l 899 817 l 899 899 m 735 327 l 490 327 l 490 735 l 735 735 l 735 327 z "},"r":{"ha":1144,"x_min":0,"x_max":980,"o":"m 82 897 l 82 735 l 163 735 l 163 817 l 245 817 l 245 897 l 82 897 m 899 899 l 899 817 l 980 817 l 980 572 l 899 572 l 899 490 l 817 490 l 817 408 l 899 408 l 899 327 l 980 327 l 980 82 l 899 82 l 899 0 l 817 0 l 817 82 l 735 82 l 735 163 l 654 163 l 654 245 l 572 245 l 572 327 l 490 327 l 490 82 l 408 82 l 408 0 l 82 0 l 82 82 l 0 82 l 0 899 l 82 899 l 82 980 l 817 980 l 817 899 l 899 899 m 490 654 l 735 654 l 735 735 l 490 735 l 490 654 z "},"s":{"ha":1144,"x_min":0,"x_max":980,"o":"m 899 980 l 163 980 l 163 899 l 245 899 l 245 817 l 163 817 l 163 735 l 82 735 l 82 817 l 0 817 l 0 572 l 82 572 l 82 490 l 654 490 l 654 408 l 82 408 l 82 327 l 0 327 l 0 82 l 82 82 l 82 0 l 817 0 l 817 82 l 899 82 l 899 163 l 980 163 l 980 572 l 899 572 l 899 654 l 490 654 l 490 735 l 899 735 l 899 817 l 980 817 l 980 899 l 899 899 l 899 980 z "},"t":{"ha":1144,"x_min":0,"x_max":980,"o":"m 82 737 l 163 737 l 163 817 l 245 817 l 245 897 l 82 897 l 82 737 m 82 899 l 82 980 l 899 980 l 899 899 l 980 899 l 980 735 l 899 735 l 899 654 l 735 654 l 735 82 l 654 82 l 654 0 l 327 0 l 327 82 l 245 82 l 245 654 l 82 654 l 82 735 l 0 735 l 0 899 l 82 899 z "},"u":{"ha":1144,"x_min":0,"x_max":980,"o":"m 82 897 l 82 735 l 163 735 l 163 817 l 245 817 l 245 897 l 82 897 m 899 980 l 899 899 l 980 899 l 980 163 l 899 163 l 899 82 l 817 82 l 817 0 l 163 0 l 163 82 l 82 82 l 82 163 l 0 163 l 0 899 l 82 899 l 82 980 l 408 980 l 408 899 l 490 899 l 490 327 l 654 327 l 654 899 l 735 899 l 735 980 l 899 980 z "},"v":{"ha":1144,"x_min":0,"x_max":980,"o":"m 82 897 l 82 735 l 163 735 l 163 817 l 245 817 l 245 897 l 82 897 m 899 980 l 899 899 l 980 899 l 980 408 l 899 408 l 899 327 l 817 327 l 817 245 l 735 245 l 735 163 l 654 163 l 654 82 l 572 82 l 572 0 l 163 0 l 163 82 l 82 82 l 82 163 l 0 163 l 0 899 l 82 899 l 82 980 l 408 980 l 408 899 l 490 899 l 490 408 l 572 408 l 572 490 l 654 490 l 654 899 l 735 899 l 735 980 l 899 980 z "},"w":{"ha":1225,"x_min":0,"x_max":1062,"o":"m 82 897 l 82 735 l 163 735 l 163 817 l 245 817 l 245 897 l 82 897 m 980 980 l 980 899 l 1062 899 l 1062 82 l 980 82 l 980 0 l 817 0 l 817 82 l 735 82 l 735 163 l 654 163 l 654 245 l 572 245 l 572 163 l 490 163 l 490 82 l 408 82 l 408 0 l 82 0 l 82 82 l 0 82 l 0 899 l 82 899 l 82 980 l 408 980 l 408 899 l 490 899 l 490 490 l 572 490 l 572 572 l 654 572 l 654 490 l 735 490 l 735 899 l 817 899 l 817 980 l 980 980 z "},"x":{"ha":1144,"x_min":0,"x_max":980,"o":"m 82 897 l 82 735 l 163 735 l 163 817 l 245 817 l 245 897 l 82 897 m 245 899 l 327 899 l 327 817 l 408 817 l 408 735 l 490 735 l 490 817 l 572 817 l 572 899 l 654 899 l 654 980 l 899 980 l 899 899 l 980 899 l 980 735 l 899 735 l 899 654 l 817 654 l 817 572 l 735 572 l 735 490 l 817 490 l 817 408 l 899 408 l 899 327 l 980 327 l 980 82 l 899 82 l 899 0 l 735 0 l 735 82 l 654 82 l 654 163 l 572 163 l 572 245 l 490 245 l 490 163 l 408 163 l 408 82 l 327 82 l 327 0 l 82 0 l 82 82 l 0 82 l 0 245 l 82 245 l 82 327 l 163 327 l 163 408 l 245 408 l 245 490 l 163 490 l 163 572 l 82 572 l 82 654 l 0 654 l 0 899 l 82 899 l 82 980 l 245 980 l 245 899 z "},"y":{"ha":1144,"x_min":0,"x_max":980,"o":"m 82 737 l 163 737 l 163 817 l 245 817 l 245 897 l 82 897 l 82 737 m 82 899 l 82 980 l 327 980 l 327 899 l 408 899 l 408 817 l 572 817 l 572 899 l 654 899 l 654 980 l 899 980 l 899 899 l 980 899 l 980 735 l 899 735 l 899 654 l 817 654 l 817 572 l 735 572 l 735 82 l 654 82 l 654 0 l 408 0 l 408 82 l 327 82 l 327 490 l 245 490 l 245 572 l 163 572 l 163 654 l 82 654 l 82 735 l 0 735 l 0 899 l 82 899 z "},"z":{"ha":1144,"x_min":0,"x_max":980,"o":"m 82 737 l 163 737 l 163 817 l 245 817 l 245 897 l 82 897 l 82 737 m 82 899 l 82 980 l 899 980 l 899 899 l 980 899 l 980 735 l 899 735 l 899 654 l 817 654 l 817 572 l 735 572 l 735 490 l 654 490 l 654 408 l 899 408 l 899 327 l 980 327 l 980 82 l 899 82 l 899 0 l 82 0 l 82 82 l 0 82 l 0 245 l 82 245 l 82 327 l 163 327 l 163 408 l 245 408 l 245 490 l 327 490 l 327 572 l 408 572 l 408 654 l 82 654 l 82 735 l 0 735 l 0 899 l 82 899 z "},"{":{"ha":899,"x_min":0,"x_max":735,"o":"m 654 1144 l 327 1144 l 327 1062 l 408 1062 l 408 980 l 327 980 l 327 899 l 245 899 l 245 980 l 163 980 l 163 735 l 82 735 l 82 654 l 0 654 l 0 490 l 82 490 l 82 408 l 163 408 l 163 163 l 245 163 l 245 82 l 327 82 l 327 0 l 654 0 l 654 82 l 735 82 l 735 245 l 654 245 l 654 327 l 572 327 l 572 817 l 654 817 l 654 899 l 735 899 l 735 1062 l 654 1062 l 654 1144 z "},"|":{"ha":735,"x_min":0,"x_max":572,"o":"m 82 1061 l 82 899 l 163 899 l 163 980 l 245 980 l 245 1061 l 82 1061 m 490 1144 l 490 1062 l 572 1062 l 572 82 l 490 82 l 490 0 l 82 0 l 82 82 l 0 82 l 0 1062 l 82 1062 l 82 1144 l 490 1144 z "},"}":{"ha":899,"x_min":0,"x_max":735,"o":"m 82 1061 l 82 900 l 163 900 l 163 980 l 245 980 l 245 1061 l 82 1061 m 163 327 l 163 817 l 82 817 l 82 899 l 0 899 l 0 1062 l 82 1062 l 82 1144 l 408 1144 l 408 1062 l 490 1062 l 490 980 l 572 980 l 572 735 l 654 735 l 654 654 l 735 654 l 735 490 l 654 490 l 654 408 l 572 408 l 572 163 l 490 163 l 490 82 l 408 82 l 408 0 l 82 0 l 82 82 l 0 82 l 0 245 l 82 245 l 82 327 l 163 327 z "},"~":{"ha":817,"x_min":0,"x_max":654,"o":"m 82 979 l 82 817 l 163 817 l 163 899 l 245 899 l 245 979 l 82 979 m 572 980 l 654 980 l 654 735 l 572 735 l 572 654 l 82 654 l 82 735 l 0 735 l 0 980 l 82 980 l 82 1062 l 572 1062 l 572 980 z "}," ":{"ha":1157,"x_min":0,"x_max":0,"o":""}}}
